<svg xmlns="http://www.w3.org/2000/svg" viewBox="40 40 280 60" width="100%" height="100%">
  <g>
    <!-- Teal Sun -->
    <path d="M 125,55 A 24,24 0 0,1 173,55 Z" fill="#00D2B4" />

    <!-- Teal Lower Wake Wave -->
    <path d="M 45,86 C 60,86 70,72 90,72 C 115,72 110,86 145,86 C 160,86 165,82 175,82 C 150,86 120,86 100,82 C 75,77 65,86 45,86 Z" fill="#00D2B4" />

    <!-- Main White Yacht Body and Speed Lines -->
    <path d="M 105,53 C 130,53 155,58 190,48 C 170,56 145,58 120,58 Z" fill="#FFFFFF" />
    <path d="M 82,60 C 115,60 145,55 170,44 C 185,41 210,50 240,59 C 190,59 140,65 95,65 Z" fill="#FFFFFF" />
    <path d="M 60,71 C 110,71 160,67 215,63 C 255,60 285,68 310,75 C 240,86 170,95 125,82 C 95,73 75,74 60,71 Z" fill="#FFFFFF" />
    <path d="M 195,84 C 220,88 245,84 275,80 C 250,85 220,89 195,84 Z" fill="#FFFFFF" />
    <path d="M 225,88 C 245,91 265,88 285,84 C 260,89 240,92 225,88 Z" fill="#FFFFFF" />
  </g>
</svg>
